<svg width="943" height="493" viewBox="0 0 943 493" fill="none" xmlns="http://www.w3.org/2000/svg">
<path d="M0 20C0 8.95431 8.95431 0 20 0H26V269H20C8.95431 269 0 260.046 0 249V20Z" fill="#FEFFCE"/>
<path d="M84 14H90C101.046 14 110 22.9543 110 34V348C110 359.046 101.046 368 90 368H84V14Z" fill="#FEFFCE"/>
<path d="M130 46C130 40.4772 134.477 36 140 36H156V417H140C134.477 417 130 412.523 130 407V46Z" fill="#FEFFCE"/>
<rect x="21" y="109" width="69" height="67" fill="#FEFFCE"/>
<path d="M221 262H247V452H231C225.477 452 221 447.523 221 442V262Z" fill="#FEFFCE"/>
<path d="M296 262H321V481C321 486.523 316.523 491 311 491H296V262Z" fill="#FEFFCE"/>
<path d="M163 36H194C205.046 36 214 44.9543 214 56V76H163V36Z" fill="#FEFFCE"/>
<path d="M163 215H194C205.046 215 214 223.954 214 235V235C214 246.046 205.046 255 194 255H163V215Z" fill="#FEFFCE"/>
<path d="M163 377H214V397C214 408.046 205.046 417 194 417H163V377Z" fill="#FEFFCE"/>
<path d="M337 248H369V483C369 488.523 364.523 493 359 493H337V248Z" fill="#FEFFCE"/>
<path d="M408 284C408 272.954 416.954 264 428 264H431V368H428C416.954 368 408 359.046 408 348V284Z" fill="#FEFFCE"/>
<path d="M445 34C445 22.9543 453.954 14 465 14H534C545.046 14 554 22.9543 554 34V41H445V34Z" fill="#FEFFCE"/>
<path d="M445 34C445 22.9543 453.954 14 465 14H534C545.046 14 554 22.9543 554 34V41H445V34Z" fill="#FEFFCE"/>
<path d="M554 34C554 22.9543 562.954 14 574 14H586C597.046 14 606 22.9543 606 34V41H554V34Z" fill="#FEFFCE"/>
<path d="M528 27H544C549.523 27 554 31.4772 554 37V269H548C536.954 269 528 260.046 528 249V27Z" fill="#FEFFCE"/>
<circle cx="388.5" cy="281.5" r="12.5" fill="#FEFFCE"/>
<path d="M415.333 36C423.985 36 431 43.0145 431 51.667V232C431 243.046 422.046 252 411 252H337V114.333C337 71.071 372.071 36.0002 415.333 36ZM401.5 81.4287C383.551 81.4287 369 95.9795 369 113.929V207.429H388C399.046 207.429 408 198.474 408 187.429V87.9287C408 84.3389 405.09 81.4287 401.5 81.4287Z" fill="#FEFFCE"/>
<path d="M221 36C276.228 36 321 80.7715 321 136V264H221V36ZM287.65 142C280.768 142 274.683 145.605 271 151.123C267.317 145.605 261.232 142 254.35 142C243.111 142 234 151.613 234 163.471C234 184.941 258.05 204.46 271 209C283.95 204.46 308 184.941 308 163.471C308 151.613 298.889 142 287.65 142Z" fill="#FEFFCE"/>
<path d="M896.859 242.504C896.859 251.464 897.328 257.437 898.267 260.424C899.206 263.325 900.912 264.776 903.387 264.776C905.947 264.776 908.123 263.667 909.915 261.448C911.792 259.229 912.731 255.944 912.731 251.592V223.688C912.731 220.019 912.006 216.904 910.555 214.344C909.104 211.784 906.971 210.504 904.155 210.504C901.339 210.504 899.419 212.381 898.395 216.136C897.371 219.891 896.859 226.461 896.859 235.848V242.504ZM914.395 269L912.987 260.04C910.086 266.867 904.198 270.28 895.323 270.28C887.984 270.28 882.267 267.635 878.171 262.344C874.16 257.053 872.155 249.16 872.155 238.664C872.155 217.416 880.603 206.792 897.499 206.792C905.008 206.792 909.958 208.883 912.347 213.064V175.304H904.539V173H936.539V266.696H942.811V269H914.395Z" fill="#FEFFCE"/>
<path d="M831.345 239.128H835.057V229.272C835.057 221.165 834.588 215.747 833.649 213.016C832.796 210.2 831.089 208.792 828.529 208.792C826.993 208.792 825.585 209.219 824.305 210.072C823.11 210.84 822.513 211.949 822.513 213.4C822.513 214.765 822.769 216.173 823.281 217.624H826.481C827.164 219.416 827.505 221.592 827.505 224.152C827.505 226.627 826.438 228.803 824.305 230.68C822.172 232.472 819.484 233.368 816.241 233.368C808.902 233.368 805.233 229.827 805.233 222.744C805.233 212.248 814.15 207 831.985 207C842.14 207 849.137 208.749 852.977 212.248C856.902 215.661 858.865 221.976 858.865 231.192V257.176C858.865 261.613 860.102 263.832 862.577 263.832C865.478 263.832 867.185 259.437 867.697 250.648L869.617 250.776C869.276 258.285 867.868 263.448 865.393 266.264C862.918 269.08 858.865 270.488 853.233 270.488C842.993 270.488 837.105 267.331 835.569 261.016C834.46 264.259 832.796 266.648 830.577 268.184C828.358 269.72 825.116 270.488 820.849 270.488C808.22 270.488 801.905 265.325 801.905 255C801.905 248.941 804.294 244.803 809.073 242.584C813.937 240.28 821.361 239.128 831.345 239.128ZM826.225 254.872C826.225 259.309 826.438 262.168 826.865 263.448C827.377 264.728 828.273 265.368 829.553 265.368C830.918 265.368 832.156 264.301 833.265 262.168C834.46 259.949 835.057 256.92 835.057 253.08V241.176H834.161C828.87 241.176 826.225 245.059 826.225 252.824V254.872Z" fill="#FEFFCE"/>
<path d="M768.289 270.28C757.281 270.28 749.004 267.464 743.457 261.832C737.996 256.115 735.265 248.221 735.265 238.152C735.265 227.997 738.337 220.232 744.481 214.856C750.71 209.48 758.604 206.792 768.161 206.792C787.532 206.792 796.833 216.52 796.065 235.976H759.969V240.968C759.969 249.331 761.036 255.645 763.169 259.912C765.302 264.179 769.014 266.312 774.305 266.312C784.204 266.312 794.522 251.88 793.761 250.44C793 249 796.065 250.824 796.065 250.824C794.444 256.968 791.5 261.747 787.233 265.16C783.052 268.573 776.737 270.28 768.289 270.28ZM760.097 233.416H773.281V227.144C773.281 220.232 772.854 215.539 772.001 213.064C771.233 210.504 769.612 209.224 767.137 209.224C764.748 209.224 762.956 210.589 761.761 213.32C760.652 215.965 760.097 220.573 760.097 227.144V233.416Z" fill="#FEFFCE"/>
<path d="M714.627 211.656C711.47 211.656 708.696 213.704 706.307 217.8C703.918 221.896 702.723 226.76 702.723 232.392V266.696C702.723 266.696 709.87 267.597 711 266.696C712.5 265.5 711.811 269 711.811 269H671.875V266.696H678.915V210.376V208.072H702.723V220.36C703.832 216.008 705.966 212.68 709.123 210.376C712.28 207.987 715.864 206.792 719.875 206.792C723.886 206.792 727.128 207.944 729.603 210.248C732.163 212.467 733.443 215.667 733.443 219.848C733.443 223.944 732.504 227.101 730.627 229.32C728.75 231.539 725.848 232.648 721.923 232.648C718.083 232.648 715.224 231.368 713.347 228.808C711.555 226.248 711.342 222.707 712.707 218.184H717.315C719.448 213.832 718.552 211.656 714.627 211.656Z" fill="#FEFFCE"/>
<path d="M553 173H623.848V219.848C625.213 215.923 627.304 212.765 630.12 210.376C632.936 207.987 637.203 206.792 642.92 206.792C656.147 206.792 662.76 213.917 662.76 228.168V266.696H672V269H633.704V266.696H638.952V225.096C638.952 219.976 638.611 216.691 637.928 215.24C637.245 213.704 636.008 212.936 634.216 212.936C631.485 212.936 629.053 214.728 626.92 218.312C624.872 221.896 623.848 226.248 623.848 231.368V266.696H633.704V269H600.04V266.696V175.304H553L553 173Z" fill="#FEFFCE"/>
<path d="M737.5 246C732 257.5 720 263.5 711.5 266.5V269C725.5 264.5 736.5 252.5 737.5 246Z" fill="#FEFFCE"/>
</svg>
