<svg width="48" height="48" viewBox="0 0 48 48" fill="none" xmlns="http://www.w3.org/2000/svg">
<path d="M24.0005 4.95312C13.4981 4.95312 4.9541 13.4971 4.9541 23.9995C4.9541 34.5019 13.4981 43.0459 24.0005 43.0459C34.5029 43.0459 43.0469 34.5019 43.0469 23.9995C43.0469 13.4971 34.5029 4.95312 24.0005 4.95312ZM12.6437 36.1483L17.6549 31.8523C18.2309 31.3579 18.9125 31.0987 19.6229 31.0987H28.3781C29.0885 31.0987 29.7701 31.3579 30.3461 31.8523L35.3573 36.1483C32.3813 38.9323 28.3877 40.6411 24.0005 40.6411C19.6133 40.6411 15.6197 38.9323 12.6437 36.1483ZM36.9893 34.3867L31.9061 30.0283C30.9029 29.1691 29.6501 28.6939 28.3733 28.6939H19.6181C18.3413 28.6939 17.0885 29.1691 16.0853 30.0283L11.0021 34.3867C8.7173 31.5355 7.3493 27.9259 7.3493 23.9995C7.3493 14.8219 14.8181 7.35312 23.9957 7.35312C33.1733 7.35312 40.6421 14.8219 40.6421 23.9995C40.6421 27.9259 39.2693 31.5403 36.9893 34.3867Z" fill="#78794B"/>
<path d="M24.0009 11.9229C20.0649 11.9229 16.8633 15.1244 16.8633 19.0604C16.8633 22.9964 20.0649 26.1981 24.0009 26.1981C27.9369 26.1981 31.1385 22.9964 31.1385 19.0604C31.1385 15.1244 27.9369 11.9229 24.0009 11.9229ZM24.0009 23.7981C21.3897 23.7981 19.2633 21.6716 19.2633 19.0604C19.2633 16.4492 21.3897 14.3229 24.0009 14.3229C26.6121 14.3229 28.7385 16.4492 28.7385 19.0604C28.7385 21.6716 26.6121 23.7981 24.0009 23.7981Z" fill="#78794B"/>
</svg>
