<svg width="94" height="94" viewBox="0 0 94 94" fill="none" xmlns="http://www.w3.org/2000/svg">
<g filter="url(#filter0_d_27_486)">
<path d="M23.8004 75.6905C22.6104 75.6905 21.4204 75.7405 20.2304 75.6905C15.6104 75.4705 12.3404 72.2105 12.1604 67.5805C12.0704 65.4005 12.1104 63.2205 12.1404 61.0405C12.1804 58.5405 11.3604 56.3805 9.7604 54.5005C8.1004 52.5405 6.4004 50.5905 4.7604 48.6105C1.9404 45.2005 1.9804 40.7905 4.8304 37.3805C6.4404 35.4505 8.07039 33.5405 9.7004 31.6405C11.3604 29.7005 12.2004 27.4905 12.1404 24.9205C12.0904 22.8705 12.0904 20.8205 12.1404 18.7805C12.2704 13.8105 15.5804 10.5005 20.5204 10.3605C20.7804 10.3605 21.0504 10.3605 21.3104 10.3605C31.8404 10.4505 30.5004 10.5305 38.2004 3.84051C42.9104 -0.259491 46.7904 -0.339491 51.5404 3.68051C59.7404 10.6205 57.8504 10.4105 69.1704 10.3905C74.2004 10.3905 77.4504 13.6705 77.6204 18.6705C77.6204 18.8705 77.6304 19.0705 77.6304 19.2605C77.5604 29.9305 77.3604 28.3005 84.0704 36.1905C88.3604 41.2405 88.4004 44.9305 84.0504 50.0005C77.0804 58.1105 77.7604 56.3805 77.7004 66.7605C77.6704 72.4605 74.4004 75.7505 68.6904 75.7405C58.2504 75.7205 59.6604 75.4205 52.1104 82.0105C49.5104 84.2805 46.8104 86.0505 43.2004 85.1005C41.9004 84.7605 40.6404 84.0805 39.5204 83.3205C38.2704 82.4805 37.1104 81.4505 36.0604 80.3705C32.6704 76.9105 28.7804 74.9205 23.7904 75.7305L23.8004 75.6905ZM39.8204 48.9005C37.1104 46.1205 34.6704 43.5305 32.1404 41.0205C30.5804 39.4805 28.7304 39.4505 27.4104 40.7905C26.1504 42.0605 26.1704 43.9205 27.6104 45.3905C30.8904 48.7405 34.2104 52.0605 37.5704 55.3305C39.0304 56.7605 40.7104 56.8105 42.1504 55.3905C48.9604 48.6505 55.7404 41.8905 62.4504 35.0405C63.0804 34.4005 63.4904 33.0505 63.2704 32.2105C63.0404 31.2905 62.0404 30.0405 61.2404 29.9305C60.1304 29.7705 58.5604 30.2005 57.7604 30.9705C51.7904 36.7705 45.9704 42.7205 39.8204 48.9005Z" fill="#FFDB21"/>
</g>
<path d="M39.8203 48.9007C45.9703 42.7207 51.7903 36.7707 57.7603 30.9707C58.5603 30.2007 60.1303 29.7707 61.2403 29.9307C62.0503 30.0507 63.0403 31.3007 63.2703 32.2107C63.4803 33.0507 63.0803 34.4007 62.4503 35.0407C55.7503 41.8807 48.9603 48.6507 42.1503 55.3907C40.7103 56.8207 39.0303 56.7607 37.5703 55.3307C34.2103 52.0607 30.8903 48.7407 27.6103 45.3907C26.1703 43.9207 26.1603 42.0607 27.4103 40.7907C28.7303 39.4507 30.5803 39.4807 32.1403 41.0207C34.6703 43.5307 37.1203 46.1107 39.8203 48.9007Z" fill="white"/>
<defs>
<filter id="filter0_d_27_486" x="0.668945" y="0.714844" width="92.6318" height="92.6475" filterUnits="userSpaceOnUse" color-interpolation-filters="sRGB">
<feFlood flood-opacity="0" result="BackgroundImageFix"/>
<feColorMatrix in="SourceAlpha" type="matrix" values="0 0 0 0 0 0 0 0 0 0 0 0 0 0 0 0 0 0 127 0" result="hardAlpha"/>
<feOffset dx="2" dy="4"/>
<feGaussianBlur stdDeviation="2"/>
<feComposite in2="hardAlpha" operator="out"/>
<feColorMatrix type="matrix" values="0 0 0 0 0 0 0 0 0 0 0 0 0 0 0 0 0 0 0.25 0"/>
<feBlend mode="normal" in2="BackgroundImageFix" result="effect1_dropShadow_27_486"/>
<feBlend mode="normal" in="SourceGraphic" in2="effect1_dropShadow_27_486" result="shape"/>
</filter>
</defs>
</svg>
